<svg width="56" height="99" viewBox="0 0 56 99" fill="none" xmlns="http://www.w3.org/2000/svg">
<path d="M37.1578 49.7589C36.6422 47.9806 34.4215 47.7818 33.6499 49.4448L31.4697 54.144C29.8978 57.5322 25.689 58.072 23.4473 55.1729L24.0404 54.6208L23.3244 54.9541L21.3712 49.9023C20.0811 47.7718 17.114 48.148 16.3115 50.5697L15.8882 51.8472C15.1666 54.0247 13.2806 55.4742 11.169 55.4742H6.22222V53.7673H11.169C12.6265 53.7673 13.9282 52.7668 14.4263 51.2639L14.8496 49.9864C16.1001 46.2131 20.7523 45.6546 22.7168 49.0419L22.0606 49.5001L22.7766 49.1668L24.7077 54.1615C26.2476 56.0258 29.0327 55.6345 30.0835 53.3696L32.2637 48.6704C33.6604 45.66 37.6695 46.006 38.6284 49.2013L39.0484 50.2877C39.864 52.3973 41.75 53.7673 43.8384 53.7673H49.7778V55.4742H43.8384C41.1257 55.4742 38.6758 53.6945 37.6164 50.9543L37.183 49.8334L37.899 49.5001L37.1578 49.7589Z" fill="black"/>
<path fill-rule="evenodd" clip-rule="evenodd" d="M32.101 65.0949C32.101 68.0515 29.9167 70.4484 27.2222 70.4484C24.5278 70.4484 22.3435 68.0515 22.3435 65.0949C22.3435 62.1383 24.5278 59.7415 27.2222 59.7415C29.9167 59.7415 32.101 62.1383 32.101 65.0949ZM28.9899 65.0949C28.9899 66.1662 28.1985 67.0346 27.2222 67.0346C26.246 67.0346 25.4546 66.1662 25.4546 65.0949C25.4546 64.0237 26.246 63.1553 27.2222 63.1553C28.1985 63.1553 28.9899 64.0237 28.9899 65.0949Z" fill="black"/>
<path d="M40.4444 66.5691C40.4444 68.4544 39.0516 69.9828 37.3333 69.9828C35.6151 69.9828 34.2222 68.4544 34.2222 66.5691C34.2222 64.6837 35.6151 63.1553 37.3333 63.1553C39.0516 63.1553 40.4444 64.6837 40.4444 66.5691Z" fill="black"/>
<path d="M15.5556 69.9828C17.2738 69.9828 18.6667 68.4544 18.6667 66.5691C18.6667 64.6837 17.2738 63.1553 15.5556 63.1553C13.8373 63.1553 12.4444 64.6837 12.4444 66.5691C12.4444 68.4544 13.8373 69.9828 15.5556 69.9828Z" fill="black"/>
<path d="M10.8889 76.8104C11.748 76.8104 12.4444 76.0462 12.4444 75.1035C12.4444 74.1608 11.748 73.3966 10.8889 73.3966C10.0298 73.3966 9.33333 74.1608 9.33333 75.1035C9.33333 76.0462 10.0298 76.8104 10.8889 76.8104Z" fill="black"/>
<path d="M43.5556 75.1035C43.5556 76.0462 42.8591 76.8104 42 76.8104C41.1409 76.8104 40.4444 76.0462 40.4444 75.1035C40.4444 74.1608 41.1409 73.3966 42 73.3966C42.8591 73.3966 43.5556 74.1608 43.5556 75.1035Z" fill="black"/>
<path d="M20.2222 93.8794C21.0813 93.8794 21.7778 93.1152 21.7778 92.1725C21.7778 91.2298 21.0813 90.4656 20.2222 90.4656C19.3631 90.4656 18.6667 91.2298 18.6667 92.1725C18.6667 93.1152 19.3631 93.8794 20.2222 93.8794Z" fill="black"/>
<path d="M34.2222 92.1725C34.2222 93.1152 33.5258 93.8794 32.6667 93.8794C31.8076 93.8794 31.1111 93.1152 31.1111 92.1725C31.1111 91.2298 31.8076 90.4656 32.6667 90.4656C33.5258 90.4656 34.2222 91.2298 34.2222 92.1725Z" fill="black"/>
<path fill-rule="evenodd" clip-rule="evenodd" d="M25.3131 75.3363C25.3131 78.2929 23.1288 80.6897 20.4343 80.6897C17.7399 80.6897 15.5556 78.2929 15.5556 75.3363C15.5556 72.3797 17.7399 69.9828 20.4343 69.9828C23.1288 69.9828 25.3131 72.3797 25.3131 75.3363ZM22.202 75.3363C22.202 76.4075 21.4106 77.2759 20.4343 77.2759C19.4581 77.2759 18.6667 76.4075 18.6667 75.3363C18.6667 74.2651 19.4581 73.3966 20.4343 73.3966C21.4106 73.3966 22.202 74.2651 22.202 75.3363Z" fill="black"/>
<path fill-rule="evenodd" clip-rule="evenodd" d="M33.7272 81.1552C36.4217 81.1552 38.606 78.7584 38.606 75.8017C38.606 72.8451 36.4217 70.4483 33.7272 70.4483C31.0328 70.4483 28.8484 72.8451 28.8484 75.8017C28.8484 78.7584 31.0328 81.1552 33.7272 81.1552ZM33.7272 77.7414C34.7035 77.7414 35.4949 76.873 35.4949 75.8017C35.4949 74.7305 34.7035 73.8621 33.7272 73.8621C32.751 73.8621 31.9596 74.7305 31.9596 75.8017C31.9596 76.873 32.751 77.7414 33.7272 77.7414Z" fill="black"/>
<path fill-rule="evenodd" clip-rule="evenodd" d="M19.0909 86.5088C19.0909 89.4654 16.9066 91.8622 14.2121 91.8622C11.5176 91.8622 9.33333 89.4654 9.33333 86.5088C9.33333 83.5521 11.5176 81.1553 14.2121 81.1553C16.9066 81.1553 19.0909 83.5521 19.0909 86.5088ZM15.9798 86.5088C15.9798 87.58 15.1884 88.4484 14.2121 88.4484C13.2359 88.4484 12.4444 87.58 12.4444 86.5088C12.4444 85.4375 13.2359 84.5691 14.2121 84.5691C15.1884 84.5691 15.9798 85.4375 15.9798 86.5088Z" fill="black"/>
<path fill-rule="evenodd" clip-rule="evenodd" d="M27.2223 91.8622C29.9167 91.8622 32.101 89.4654 32.101 86.5088C32.101 83.5521 29.9167 81.1553 27.2223 81.1553C24.5278 81.1553 22.3435 83.5521 22.3435 86.5088C22.3435 89.4654 24.5278 91.8622 27.2223 91.8622ZM27.2223 88.4484C28.1985 88.4484 28.9899 87.58 28.9899 86.5088C28.9899 85.4375 28.1985 84.5691 27.2223 84.5691C26.246 84.5691 25.4546 85.4375 25.4546 86.5088C25.4546 87.58 26.246 88.4484 27.2223 88.4484Z" fill="black"/>
<path fill-rule="evenodd" clip-rule="evenodd" d="M45.1111 86.5088C45.1111 89.4654 42.9268 91.8622 40.2323 91.8622C37.5378 91.8622 35.3535 89.4654 35.3535 86.5088C35.3535 83.5521 37.5378 81.1553 40.2323 81.1553C42.9268 81.1553 45.1111 83.5521 45.1111 86.5088ZM42 86.5088C42 87.58 41.2086 88.4484 40.2323 88.4484C39.256 88.4484 38.4646 87.58 38.4646 86.5088C38.4646 85.4375 39.256 84.5691 40.2323 84.5691C41.2086 84.5691 42 85.4375 42 86.5088Z" fill="black"/>
<path fill-rule="evenodd" clip-rule="evenodd" d="M27.4815 0C25.1905 0 23.3333 2.03788 23.3333 4.55173V10.7587C21.8776 11.0847 20.45 11.5634 19.0707 12.1903C16.2398 13.477 13.6675 15.363 11.5008 17.7405C9.33414 20.118 7.61542 22.9405 6.44281 26.0468C5.66926 28.096 5.14336 30.2423 4.875 32.431H4.66667C2.08934 32.431 0 34.7236 0 37.5517C0 39.0843 0.613557 40.4596 1.58584 41.398L5.23684 91.1505C5.56219 95.584 8.93604 99 12.9895 99H42.0757C46.0782 99 49.4272 95.6668 49.8166 91.2957L54.2476 41.5514C55.3159 40.613 56 39.17 56 37.5517C56 34.7236 53.9107 32.431 51.3333 32.431H51.125C50.8566 30.2423 50.3307 28.096 49.5572 26.0468C48.3846 22.9405 46.6659 20.118 44.4992 17.7405C42.3325 15.363 39.7602 13.477 36.9293 12.1903C35.2239 11.4152 33.4447 10.8667 31.6296 10.553V4.55172C31.6296 2.03788 29.7724 0 27.4815 0ZM20.2613 15.3443C21.2595 14.8906 22.2869 14.5264 23.3333 14.2541L23.3333 32.431H8.01853C8.26532 30.6918 8.7004 28.9869 9.3171 27.3532C10.3334 24.661 11.8229 22.2149 13.7007 20.1544C15.5785 18.0939 17.8078 16.4594 20.2613 15.3443ZM4.66667 35.8448L51.3333 35.8448C52.1924 35.8448 52.8889 36.609 52.8889 37.5517C52.8889 38.2835 52.4693 38.9077 51.8797 39.1504L51.3407 39.0926L51.3259 39.2586L4.66667 39.2586C3.80756 39.2586 3.11111 38.4944 3.11111 37.5517C3.11111 36.609 3.80756 35.8448 4.66667 35.8448ZM46.6829 27.3532C47.2996 28.9869 47.7347 30.6918 47.9815 32.431H31.6296L31.6296 14.0155C33.035 14.2969 34.4126 14.7415 35.7387 15.3443C38.1922 16.4594 40.4215 18.0939 42.2993 20.1544C44.1771 22.2149 45.6666 24.661 46.6829 27.3532ZM28.5185 32.431L28.5185 13.6625C28.3458 13.6576 28.173 13.6552 28 13.6552C27.4801 13.6552 26.9612 13.6772 26.4444 13.7209L26.4444 32.431H28.5185ZM28 10.2414C28.1729 10.2414 28.3458 10.2435 28.5185 10.2477V4.55172C28.5185 3.92326 28.0542 3.41379 27.4815 3.41379C26.9087 3.41379 26.4444 3.92326 26.4444 4.55173V10.2983C26.9615 10.2604 27.4803 10.2414 28 10.2414ZM4.80054 42.6724L51.0218 42.6724L46.7202 90.9637C46.4866 93.5863 44.4772 95.5862 42.0757 95.5862H12.9895C10.5574 95.5862 8.53312 93.5366 8.33792 90.8765L4.80054 42.6724Z" fill="black"/>
</svg>
