<svg width="173" height="86" viewBox="0 0 173 86" fill="none" xmlns="http://www.w3.org/2000/svg">
<path d="M101.14 7.26516C101.14 3.35314 104.09 0.181824 107.728 0.181824H129.689C133.328 0.181824 136.278 3.35314 136.278 7.26516C136.278 11.1772 133.328 14.3485 129.689 14.3485H138.474C142.112 14.3485 145.062 17.5198 145.062 21.4318C145.062 25.3438 142.112 28.5152 138.474 28.5152C142.112 28.5152 145.062 31.6865 145.062 35.5985C145.062 39.5105 142.112 42.6818 138.474 42.6818C142.112 42.6818 145.062 45.8531 145.062 49.7652C145.062 53.6772 142.112 56.8485 138.474 56.8485C142.112 56.8485 145.062 60.0198 145.062 63.9318C145.062 67.8438 142.112 71.0152 138.474 71.0152H24.2767C20.6381 71.0152 17.6884 67.8438 17.6884 63.9318C17.6884 60.0198 20.6381 56.8485 24.2767 56.8485C20.6381 56.8485 17.6884 53.6772 17.6884 49.7652C17.6884 45.8531 20.6381 42.6818 24.2767 42.6818C20.6381 42.6818 17.6884 39.5105 17.6884 35.5985C17.6884 31.6865 20.6381 28.5152 24.2767 28.5152C20.6381 28.5152 17.6884 25.3438 17.6884 21.4318C17.6884 17.5198 20.6381 14.3485 24.2767 14.3485H107.728C104.09 14.3485 101.14 11.1772 101.14 7.26516Z" fill="#6D6C6C"/>
<path d="M28.8686 39.3072V15.6364H129.49L123.365 45.9254C121.127 56.9964 108.936 61.8005 100.573 54.9072L83.3402 40.7025C78.2796 36.5312 71.2678 36.443 66.1178 40.4858L51.7196 51.7887C42.2216 59.2449 28.8686 51.9514 28.8686 39.3072Z" fill="white"/>
<path d="M0.119751 69.7273H172.613C172.613 78.2626 166.177 85.1818 158.239 85.1818H14.4942C6.55541 85.1818 0.119751 78.2626 0.119751 69.7273Z" fill="#6D6C6C"/>
</svg>
