<svg width="58" height="84" viewBox="0 0 58 84" fill="none" xmlns="http://www.w3.org/2000/svg">
<path d="M57.7292 32.3558C57.7508 27.5762 53.7793 23.9197 49.395 24.6826L47.4638 25.0186C46.7519 25.1425 46.2472 25.8093 46.2557 26.5626C46.2294 31.0668 44.5447 35.3765 41.5703 38.5465C38.5907 41.7222 34.5608 43.494 30.3673 43.4721C26.1738 43.4502 22.1601 41.6364 19.2093 38.4297C16.2584 35.223 14.6121 30.8861 14.6325 26.3731C14.6364 25.5188 13.9959 24.8228 13.2021 24.8187L7.45237 24.7886C3.48304 24.7679 0.249605 28.214 0.230305 32.4858L0.0380293 75.0438C0.0189313 79.2709 3.15668 82.7315 7.08382 82.8146L49.4495 83.7109C53.114 83.7885 56.2458 80.8859 56.7181 76.9743L57.5476 70.1046C57.6499 69.2573 57.0946 68.4812 56.3073 68.3712C55.5201 68.2611 54.7989 68.8587 54.6966 69.7059L53.8672 76.5756C53.5838 78.9226 51.7047 80.6641 49.506 80.6176L7.14035 79.7213C4.78407 79.6714 2.90142 77.5951 2.91288 75.0588L3.10515 32.5008C3.11673 29.9378 5.05679 27.8701 7.43839 27.8825L11.806 27.9053C12.1261 32.6747 14.0179 37.1852 17.1666 40.6068C20.6539 44.3965 25.3973 46.5401 30.3533 46.566C35.3093 46.5918 40.0718 44.4979 43.5933 40.7448C46.8236 37.302 48.7668 32.7216 49.0846 27.8707L49.8538 27.7369C52.4844 27.2791 54.8673 29.473 54.8544 32.3408L54.7266 60.6161C54.7227 61.4704 55.3632 62.1664 56.157 62.1705C56.9509 62.1747 57.5976 61.4854 57.6015 60.6311L57.7292 32.3558Z" fill="black"/>
<path fill-rule="evenodd" clip-rule="evenodd" d="M27.1132 0.139628C28.5883 0.147331 29.9076 0.857551 30.7986 1.97426C31.8444 0.858174 33.2861 0.171866 34.8752 0.180165C38.0507 0.196749 40.6124 2.98055 40.597 6.39797L40.5935 7.16516C41.4062 6.68077 42.3421 6.40708 43.3372 6.41228C46.5761 6.42919 49.1301 9.38355 48.9123 12.8614L47.76 31.2661C47.6796 32.5491 47.3034 33.7903 46.6652 34.8774L46.0048 36.0023L43.1161 41.229L40.6452 39.6474L43.5636 34.3671L44.2347 33.2249C44.6176 32.5727 44.8434 31.8279 44.8916 31.0582L46.044 12.6534C46.1502 10.9562 44.9038 9.51442 43.3232 9.50616C41.8098 9.49826 40.577 10.8122 40.5697 12.4409L40.4419 40.7238C40.4304 43.2753 38.3972 45.2648 36.0461 45.0487L33.2351 45.034C32.1307 45.0283 31.1252 44.5762 30.3656 43.8373C29.5994 44.5682 28.5899 45.0098 27.4854 45.004L24.1896 44.9868C23.1576 44.9814 22.1698 44.535 21.4436 43.7458C21.0289 43.2952 20.7189 42.7538 20.5301 42.1654C19.8723 42.2945 19.1641 42.2056 18.4942 41.8408C18.1832 41.6714 17.8996 41.4492 17.6544 41.1826L16.4301 39.8522L18.4728 37.6751L19.6971 39.0055C19.7249 39.0358 19.7571 39.061 19.7924 39.0802C20.0364 39.2132 20.3252 39.0232 20.3265 38.7288L20.4451 12.4806C20.4528 10.7719 19.172 9.38004 17.5842 9.37174C15.9965 9.36345 14.7031 10.7419 14.6954 12.4506L14.6325 26.3731L11.7577 26.3581L11.8206 12.4356C11.836 9.01819 14.4227 6.26127 17.5982 6.27786C18.6507 6.28335 19.6358 6.59284 20.4819 7.12863C20.5282 6.36513 20.6832 5.61289 20.9423 4.89845L21.0632 4.56496C22.0349 1.8849 24.44 0.125667 27.1132 0.139628ZM23.7414 5.68962C24.2807 4.20216 25.6156 3.22577 27.0992 3.23351C28.2106 3.23932 29.1072 4.21365 29.1018 5.40975L28.9438 40.3707C28.94 41.225 28.2933 41.9143 27.4994 41.9101L24.2036 41.8929C23.934 41.8915 23.676 41.7749 23.4863 41.5688C23.2966 41.3626 23.1908 41.0838 23.1921 40.7937L23.3421 7.59402C23.3445 7.05643 23.4389 6.52392 23.6205 6.0231L23.7414 5.68962ZM31.9724 6.35292C31.9802 4.64422 33.2735 3.26576 34.8613 3.27405C36.449 3.28234 37.7299 4.67425 37.7221 6.38295L37.5671 40.7088C37.5637 41.4587 36.9595 42.0415 36.2665 41.9635L36.1954 41.9555L33.2491 41.9401C32.4553 41.936 31.8148 41.24 31.8187 40.3857L31.9724 6.35292Z" fill="black"/>
<path d="M30.6258 56.0351C34.5939 56.1414 37.7306 59.6896 37.6317 63.9601C37.548 67.5769 35.1689 70.5553 32.0295 71.3147C31.2549 71.502 30.7681 72.3296 30.9422 73.1632C31.1163 73.9968 31.8853 74.5206 32.6599 74.3333C37.0546 73.2703 40.3884 69.1056 40.5057 64.0371C40.6441 58.0584 36.2528 53.091 30.6974 52.9421C25.142 52.7932 20.5262 57.5192 20.3878 63.4979C20.3218 66.3484 21.0329 69.0585 22.5293 71.1069C24.0478 73.1855 26.3121 74.4888 29.1184 74.564C29.912 74.5853 30.5714 73.9101 30.5912 73.056C30.611 72.2019 29.9836 71.4923 29.19 71.471C27.2345 71.4186 25.7748 70.5436 24.7894 69.1947C23.7819 67.8156 23.2092 65.849 23.2618 63.5749C23.3607 59.3044 26.6576 55.9287 30.6258 56.0351Z" fill="black"/>
</svg>
