<svg width="66" height="108" viewBox="0 0 66 108" fill="none" xmlns="http://www.w3.org/2000/svg">
<path fill-rule="evenodd" clip-rule="evenodd" d="M34.0769 2.27522C36.862 -0.758358 41.3777 -0.758427 44.1628 2.27514L47.1336 5.51082C47.3908 5.79093 47.7125 5.99034 48.065 6.08805C50.469 6.75455 51.4678 9.06028 52.0411 10.6727C52.1959 11.1079 52.3383 11.5514 52.4701 11.9643L52.4978 12.051C52.6223 12.4412 52.7381 12.8038 52.8601 13.157C53.1259 13.9262 53.3769 14.5131 53.6613 14.9508C53.7723 15.1217 54.5099 15.884 57.6172 15.884C59.3608 15.884 60.7066 17.0593 61.6315 18.2531C62.5881 19.488 63.374 21.092 63.9939 22.7123C65.2237 25.9271 66 29.7475 66 32.1159C66 33.2408 65.9339 34.3524 65.8379 35.3764C65.4485 39.5321 62.428 42.4704 58.9472 43.2287L57.2877 43.5901C57.4154 44.3721 57.3331 45.2113 56.9866 46.0149L30.2598 108H29.6746L9.11161 45.6619C8.88963 44.989 8.8407 44.3068 8.93362 43.6638C8.133 43.496 7.28688 43.2883 6.53909 43.0379C6.11449 42.8957 5.6835 42.7272 5.29404 42.5255C4.93476 42.3394 4.46381 42.0517 4.0874 41.6068C3.96408 41.4611 3.8349 41.3099 3.70195 41.1543C3.19777 40.5642 2.63951 39.9107 2.14261 39.2522C1.50855 38.4119 0.870849 37.4335 0.459792 36.3295C0.0361848 35.1917 -0.154398 33.8968 0.147015 32.5015C0.443747 31.1279 1.17502 29.8529 2.27733 28.6522L4.51196 26.2183C4.97439 25.7146 5.16027 24.9839 5.00146 24.292L4.67348 22.8631C3.87997 19.4059 4.80999 15.7488 7.12346 13.229L7.54632 12.7684C9.29308 10.8659 11.6622 9.79705 14.1325 9.79705H16.6346C16.9739 9.79705 17.2921 9.89588 17.5661 10.0686C18.0896 9.74014 18.7497 9.69494 19.3305 10.0113C20.4287 10.6093 20.929 10.6508 21.0733 10.6433C21.0923 10.6175 21.1211 10.5739 21.1588 10.5047C21.2422 10.3514 21.3292 10.1485 21.4472 9.84394L21.5215 9.64979C21.6156 9.40303 21.7329 9.09548 21.8546 8.81573C22.1664 8.0991 22.7319 7.00067 23.8926 6.41278C25.4529 5.62253 27.2216 5.48323 28.5521 5.37844C28.7696 5.3613 28.9757 5.34507 29.167 5.32709C30.7194 5.18113 31.6027 4.93945 32.2269 4.28973L34.0769 2.27522ZM13.0117 40.2319H53.6143C53.6436 40.2319 53.6728 40.2322 53.7019 40.2329L58.2165 39.2495C60.383 38.7775 61.9361 37.0491 62.1315 34.9643C62.1498 34.7694 62.1667 34.5722 62.182 34.3734C61.311 34.4672 60.2115 34.5823 58.9501 34.7072C55.7367 35.0254 51.4634 35.408 47.242 35.6635C43.0398 35.9178 38.8173 36.0508 35.7358 35.8533C34.2311 35.7569 32.8273 35.5736 31.8142 35.2058C31.3439 35.0351 30.6639 34.7253 30.1744 34.0952C29.899 33.7407 29.6693 33.264 29.614 32.6817C29.5595 32.1076 29.6906 31.6018 29.8711 31.2085C30.3313 30.2062 31.4502 29.8 32.3704 30.3011C32.8229 30.5475 33.143 30.9674 33.2969 31.4497C33.8568 31.5975 34.7402 31.7246 35.9546 31.8024C38.8109 31.9854 42.8548 31.8647 47.0353 31.6118C51.1968 31.36 55.4227 30.9818 58.6128 30.6659C60.0167 30.5269 61.2179 30.4001 62.1224 30.3019C61.8758 28.5652 61.3362 26.3157 60.5548 24.2731C60.0103 22.85 59.3991 21.664 58.784 20.87C58.2928 20.2359 57.9437 20.0297 57.7518 19.9672C57.5915 20.0103 57.3744 20.0683 57.1084 20.1385C56.5022 20.2985 55.6414 20.5223 54.6205 20.778C52.5822 21.2885 49.8905 21.9299 47.3066 22.4448C44.7661 22.9511 42.186 23.3655 40.4381 23.3655C39.9916 23.3655 39.5378 23.3392 39.1211 23.2596C38.7577 23.1901 38.1712 23.037 37.671 22.5949C37.3912 22.3476 37.1086 21.9823 36.9524 21.4809C36.795 20.9758 36.814 20.4877 36.9087 20.0845C37.077 19.3682 37.5001 18.8362 37.8025 18.5068C38.53 17.7144 39.7094 17.7144 40.4369 18.5068C40.648 18.7367 40.7979 19.0081 40.8865 19.2969C42.2778 19.235 44.3471 18.9093 46.636 18.4531C48.0266 18.176 49.4556 17.8598 50.796 17.5471C50.7348 17.4653 50.6761 17.3812 50.6199 17.2947C50.0564 16.4273 49.6722 15.4517 49.3733 14.5865C49.2337 14.1826 49.1028 13.7726 48.9815 13.3924L48.9512 13.2972C48.818 12.8802 48.6953 12.4991 48.5669 12.1383C48.0079 10.5662 47.5869 10.1429 47.1459 10.0206C46.1443 9.74294 45.23 9.17626 44.4991 8.38024L41.5284 5.14456C40.1982 3.69571 38.0415 3.69578 36.7113 5.14472L34.8482 7.17347L33.5311 5.73856L34.8255 7.19778C33.1753 8.93436 31.0673 9.22148 29.4874 9.37003C29.2138 9.39575 28.9541 9.41803 28.7067 9.43925C27.353 9.5554 26.3665 9.64004 25.4795 10.0844C25.4556 10.1097 25.3671 10.2186 25.2214 10.5536C25.1421 10.7357 25.0747 10.9124 24.9897 11.1351L24.88 11.4211C24.7522 11.7511 24.5841 12.169 24.3636 12.5741C23.896 13.4333 23.0892 14.4078 21.6877 14.6484C20.4505 14.8607 19.1056 14.4257 17.6643 13.6408C17.6309 13.6226 17.5982 13.6035 17.5662 13.5834C17.2922 13.7562 16.974 13.855 16.6346 13.855H14.1325C12.6503 13.855 11.2288 14.4963 10.1808 15.6379L9.75792 16.0984C8.36984 17.6103 7.81183 19.8046 8.28793 21.8789L8.61592 23.3078C9.09194 25.3817 8.5348 27.5755 7.14639 29.0877L4.91183 31.5216C4.1513 32.35 3.86976 32.9861 3.77367 33.4309C3.68226 33.8541 3.71886 34.2847 3.9124 34.8045C4.11849 35.358 4.4879 35.9693 5.02091 36.6756C5.43771 37.228 5.89159 37.7596 6.38381 38.336C6.5104 38.4843 6.63979 38.6358 6.77147 38.7911C6.79385 38.8055 6.83312 38.8292 6.89385 38.8607C7.06262 38.9481 7.30852 39.0501 7.63418 39.1591C8.2842 39.3769 9.10047 39.5731 9.93229 39.7392C10.7552 39.9034 11.5511 40.03 12.1444 40.1156C12.4399 40.1583 12.6827 40.1905 12.8504 40.2118L12.9963 40.23L13.0117 40.2319ZM32.8197 31.281L32.8267 31.2852C32.8218 31.2825 32.8196 31.281 32.8197 31.281ZM53.6143 44.2898H12.6179L14.9604 51.3913H50.5523L53.6143 44.2898ZM18.3068 61.5362L15.6297 53.4203H49.6774L46.178 61.5362H18.3068ZM45.3031 63.5652L42.6786 69.6521H20.9839L18.9761 63.5652H45.3031ZM21.6532 71.6811H41.8037L39.1791 77.7681H23.6611L21.6532 71.6811ZM24.3304 79.7971H38.3042L34.8048 87.913H27.0075L24.3304 79.7971ZM27.6768 89.942H33.9299L30.3871 98.1585L27.6768 89.942Z" fill="black"/>
</svg>
