<svg width="86" height="102" viewBox="0 0 86 102" fill="none" xmlns="http://www.w3.org/2000/svg">
<path d="M84.4403 12.2043L42.548 100.584L0.966178 12.0349L9.51146 8.11798C30.7294 -1.60781 54.7252 -1.55913 75.9088 8.25269L84.4403 12.2043Z" stroke="black"/>
<path d="M29.9484 31.0641C29.9417 34.841 27.0886 37.897 23.5757 37.8899C20.0628 37.8827 17.2204 34.8152 17.227 31.0383C17.2336 27.2615 20.0868 24.2055 23.5997 24.2126C27.1126 24.2197 29.955 27.2873 29.9484 31.0641Z" fill="black"/>
<path d="M68.1125 31.1416C68.1058 34.9184 65.2527 37.9744 61.7398 37.9673C58.2269 37.9602 55.3845 34.8926 55.3911 31.1158C55.3977 27.3389 58.2509 24.2829 61.7638 24.29C65.2767 24.2972 68.1191 27.3647 68.1125 31.1416Z" fill="black"/>
<path d="M44.73 65.2874C48.2429 65.2945 51.096 62.2385 51.1026 58.4616C51.1093 54.6848 48.2669 51.6172 44.754 51.6101C41.2411 51.603 38.3879 54.659 38.3813 58.4358C38.3746 62.2127 41.217 65.2802 44.73 65.2874Z" fill="black"/>
</svg>
