<svg width="92" height="71" viewBox="0 0 92 71" fill="none" xmlns="http://www.w3.org/2000/svg">
<path d="M47.409 0.193765C47.7449 0.287358 47.9464 0.654976 47.859 1.01489L47.8561 1.02661L47.8474 1.06309L47.814 1.20395C47.7854 1.32597 47.7448 1.50122 47.6974 1.71297C47.6023 2.13717 47.4805 2.70471 47.3719 3.28293C47.2626 3.86532 47.1701 4.44094 47.1295 4.88729C47.1097 5.10529 47.1046 5.26929 47.1104 5.37851C47.3349 5.60151 47.5706 5.8452 47.7429 6.09919C47.9553 6.41221 48.1327 6.82996 48.0387 7.33379C48.0009 7.53614 47.8803 7.84254 47.7659 8.08452C47.7035 8.21654 47.6299 8.35724 47.5502 8.48335C47.4814 8.59228 47.3677 8.75658 47.2129 8.87156C47.1731 8.90116 47.0892 8.99867 47.1465 9.35756C47.2002 9.69372 47.3522 10.0295 47.4344 10.1588L47.7881 10.7153L46.7489 11.4733L46.3952 10.9168C46.221 10.6427 45.9942 10.128 45.9074 9.58487C45.8255 9.07141 45.8383 8.27548 46.4707 7.78474C46.4771 7.77643 46.4901 7.75889 46.5093 7.72853C46.5502 7.6639 46.5973 7.57615 46.6445 7.47633C46.691 7.37789 46.7325 7.27846 46.7636 7.19517C46.7897 7.125 46.8014 7.08512 46.8049 7.0728C46.8062 7.06852 46.8054 7.07044 46.8049 7.0728C46.8065 7.06457 46.8083 7.05559 46.8033 7.03814C46.7965 7.01408 46.7774 6.96683 46.726 6.89102C46.6135 6.72525 46.43 6.53802 46.1494 6.26097C46.0015 6.11491 45.9391 5.93709 45.91 5.8292C45.878 5.71034 45.8637 5.58862 45.8569 5.48075C45.8433 5.26409 45.8553 5.012 45.8784 4.75722C45.9251 4.24215 46.0277 3.61356 46.1396 3.01763C46.2522 2.41753 46.3779 1.83264 46.475 1.39899C46.5237 1.18182 46.5653 1.00178 46.5949 0.875757L46.6296 0.729171L46.639 0.690106L46.6415 0.679817C46.7289 0.319918 47.0731 0.100169 47.409 0.193765Z" fill="black"/>
<path d="M91.3013 14.9632C91.4457 20.3099 90.6391 22.4581 89.0654 26.6492C88.8077 27.3356 88.5294 28.0767 88.2313 28.8956C86.1133 34.7153 82.9224 40.0427 78.8408 44.5737C74.7591 49.1047 69.8667 52.7506 64.4428 55.3031C59.019 57.8556 53.1699 59.2648 47.2295 59.4503C41.2891 59.6357 35.3738 58.5938 29.8213 56.3839C24.2689 54.174 19.1879 50.8395 14.8686 46.5708C10.5493 42.3021 7.07625 37.1827 4.64772 31.505C4.30598 30.706 3.98816 29.9835 3.69384 29.3144C1.89663 25.2285 0.975427 23.1342 0.831026 17.7875L91.3013 14.9632Z" fill="black"/>
<path d="M47.2295 59.4503L57.2817 59.1364L57.4272 64.5208L62.4533 64.3639L62.5987 69.7483L32.442 70.6897L32.2965 65.3053L37.3227 65.1484L37.1772 59.7641L47.2295 59.4503Z" fill="black"/>
<path d="M42.8328 1.1718C42.9203 0.811884 42.7188 0.444266 42.3829 0.350673C42.0469 0.257077 41.7037 0.47296 41.6163 0.832859L41.6129 0.847014L41.6035 0.886078L41.5688 1.03266C41.5392 1.15869 41.4975 1.33873 41.4489 1.5559C41.3517 1.98955 41.2261 2.57443 41.1134 3.17453C41.0015 3.77046 40.899 4.39906 40.8523 4.91412C40.8291 5.16891 40.8172 5.42099 40.8308 5.63766C40.8375 5.74553 40.8519 5.86725 40.8839 5.98611C40.913 6.09399 40.9754 6.27182 41.1233 6.41788C41.4038 6.69493 41.5874 6.88215 41.6998 7.04793C41.7513 7.12374 41.7704 7.17098 41.7772 7.19505C41.7822 7.2125 41.7815 7.21859 41.7799 7.22682C41.7804 7.22446 41.7812 7.22254 41.7799 7.22682C41.7763 7.23914 41.7636 7.28191 41.7375 7.35208C41.7064 7.43536 41.6649 7.53479 41.6183 7.63323C41.5711 7.73306 41.524 7.82081 41.4832 7.88543C41.464 7.9158 41.451 7.93334 41.4446 7.94165C40.8121 8.43239 40.7993 9.22832 40.8813 9.74177C40.968 10.2849 41.1949 10.7996 41.3691 11.0737L41.7228 11.6302L42.762 10.8722L42.4083 10.3157C42.3261 10.1864 42.174 9.85063 42.1204 9.51446C42.0631 9.15558 42.147 9.05807 42.1868 9.02847C42.3416 8.91349 42.4552 8.74919 42.5241 8.64025C42.6038 8.51415 42.6774 8.37345 42.7398 8.24143C42.8542 7.99945 42.9748 7.69305 43.0125 7.49069C43.1066 6.98687 42.9291 6.56912 42.7168 6.2561C42.5445 6.00211 42.3087 5.75842 42.0843 5.53542C42.0785 5.4262 42.0836 5.2622 42.1034 5.0442C42.1439 4.59785 42.2364 4.02223 42.3458 3.43984C42.4544 2.86162 42.5762 2.29408 42.6712 1.86988C42.7187 1.65812 42.7592 1.48288 42.7879 1.36086L42.8212 1.21999L42.83 1.18352L42.8328 1.1718Z" fill="black"/>
<path d="M37.8067 1.32871L37.8039 1.34043L37.7951 1.3769L37.7618 1.51777C37.7331 1.63979 37.6925 1.81503 37.6451 2.02678C37.5501 2.45098 37.4282 3.01853 37.3197 3.59674C37.2103 4.17913 37.1178 4.75476 37.0773 5.20111C37.0575 5.41911 37.0524 5.58311 37.0582 5.69232C37.2826 5.91533 37.5184 6.15902 37.6907 6.413C37.903 6.72603 38.0805 7.14378 37.9864 7.6476C37.9486 7.84996 37.828 8.15635 37.7136 8.39833C37.6512 8.53035 37.5777 8.67105 37.498 8.79716C37.4291 8.9061 37.3154 9.07039 37.1607 9.18538C37.1208 9.21497 37.037 9.31249 37.0943 9.67137C37.1479 10.0075 37.3 10.3433 37.3821 10.4726L37.7358 11.0291L36.6967 11.7871L36.343 11.2306C36.1688 10.9565 35.9419 10.4418 35.8552 9.89868C35.7732 9.38523 35.786 8.5893 36.4185 8.09856C36.4249 8.09024 36.4379 8.07271 36.4571 8.04234C36.4979 7.97772 36.545 7.88997 36.5922 7.79014C36.6387 7.6917 36.6803 7.59227 36.7113 7.50899C36.7375 7.43882 36.7491 7.39893 36.7527 7.38661C36.7539 7.38233 36.7531 7.38425 36.7527 7.38661C36.7542 7.37838 36.7561 7.36941 36.7511 7.35196C36.7442 7.32789 36.7251 7.28065 36.6737 7.20484C36.5613 7.03906 36.3777 6.85184 36.0971 6.57479C35.9492 6.42872 35.8868 6.2509 35.8578 6.14301C35.8257 6.02415 35.8114 5.90243 35.8046 5.79457C35.791 5.5779 35.803 5.32582 35.8261 5.07103C35.8729 4.55596 35.9754 3.92737 36.0873 3.33144C36.2 2.73134 36.3256 2.14645 36.4228 1.71281C36.4714 1.49563 36.5131 1.3156 36.5427 1.18957L36.5774 1.04299L36.5868 1.00392L36.5892 0.993632C36.6767 0.633733 37.0208 0.413985 37.3568 0.50758C37.6927 0.601173 37.8941 0.968813 37.8067 1.32871Z" fill="black"/>
</svg>
