<svg width="58" height="111" viewBox="0 0 58 111" fill="none" xmlns="http://www.w3.org/2000/svg">
<path d="M5.03782 49.1021L10.5002 107.453C10.5945 108.46 11.4252 109.242 12.4358 109.274L41.5662 110.209C42.5794 110.241 43.4535 109.511 43.6003 108.508L52.3456 48.804" stroke="black"/>
<rect width="54.0363" height="10.8917" rx="2" transform="matrix(0.999485 0.0320741 -0.0277511 0.999615 1.91431 39.9207)" fill="black"/>
<rect x="0.121467" y="0.128961" width="53.7863" height="10.6417" rx="1.875" transform="matrix(0.999485 0.0320741 -0.0277511 0.999615 1.91795 39.9168)" stroke="#FDFDFD" stroke-opacity="0.5" stroke-width="0.25"/>
<path d="M5.28974 40.0291C5.38236 36.6929 6.08524 33.4091 7.35826 30.365C8.63129 27.321 10.4495 24.5763 12.7091 22.2877C14.9688 19.9991 17.6255 18.2114 20.5277 17.0268C23.4299 15.8421 26.5208 15.2836 29.6237 15.3832C32.7267 15.4827 35.781 16.2384 38.6124 17.6071C41.4437 18.9758 43.9965 20.9306 46.1252 23.36C48.2538 25.7894 49.9166 28.6458 51.0184 31.7661C52.1203 34.8864 52.6398 38.2095 52.5472 41.5456" stroke="black" stroke-width="0.25"/>
<path d="M12.2252 107.441L7.22344 51.4886L49.987 52.8609L42.4398 108.397C42.3367 109.155 41.6779 109.712 40.912 109.688L13.6775 108.814C12.9171 108.789 12.293 108.199 12.2252 107.441Z" fill="black" stroke="black"/>
<path d="M9.06834 25.6208C29.0193 37.1582 37.5589 33.7999 49.5243 28.7352L51.1114 32.4186L52.5472 41.5456L5.2898 40.0291L5.44093 34.5854L7.27982 29.1958L9.06834 25.6208Z" fill="black"/>
<rect x="0.405427" y="0.590517" width="2.38345" height="35.248" rx="1.19173" transform="matrix(0.981264 0.196282 -0.170409 0.984752 44.6378 59.3161)" stroke="white"/>
<rect width="6.83962" height="39.4958" rx="2" transform="matrix(0.891201 0.457286 -0.405104 0.912608 41.6372 1.23914)" fill="black"/>
</svg>
